<?xml version="1.0" encoding="utf-8"?>
<!-- Generator: Adobe Illustrator 23.0.1, SVG Export Plug-In . SVG Version: 6.00 Build 0)  -->
<svg version="1.1" id="Layer_1" xmlns="http://www.w3.org/2000/svg" xmlns:xlink="http://www.w3.org/1999/xlink" x="0px" y="0px"
	 viewBox="0 0 27 23" style="enable-background:new 0 0 27 23;" xml:space="preserve">
<style type="text/css">
	.st0{fill:#B7CFFF;stroke:#2168F3;stroke-width:1.5;}
	.st1{fill:none;stroke:#2168F3;stroke-width:1.6;}
</style>
<g id="Zeplin_Mobile_New">
	<g id="More-Tab" transform="translate(-26.000000, -500.000000)">
		<g id="Group-5" transform="translate(26.000000, 500.000000)">
			<g id="Group-3" transform="translate(0.000000, 2.000000)">
				<path id="Rectangle" class="st0" d="M14-0.2L14-0.2c2.1,0,3.8,1.7,3.8,3.8l0,0c0,2.1-1.7,3.8-3.8,3.8l0,0
					c-2.1,0-3.8-1.7-3.8-3.8l0,0C10.3,1.4,11.9-0.2,14-0.2z"/>
				<path id="Rectangle_1_" class="st1" d="M9.5,9.8c-2.3,0-4.2,1.9-4.2,4.2v4c0,0.7,0.5,1.2,1.2,1.2h14c0.7,0,1.2-0.5,1.2-1.2v-4
					c0-2.3-1.9-4.2-4.2-4.2H9.5z"/>
			</g>
		</g>
	</g>
</g>
</svg>
