<?xml version="1.0" encoding="utf-8"?>
<!-- Generator: Adobe Illustrator 23.0.4, SVG Export Plug-In . SVG Version: 6.00 Build 0)  -->
<svg version="1.1" id="Layer_1" xmlns="http://www.w3.org/2000/svg" xmlns:xlink="http://www.w3.org/1999/xlink" x="0px" y="0px"
	 viewBox="0 0 21 14" style="enable-background:new 0 0 21 14;" xml:space="preserve">
<style type="text/css">
	.st0{fill:#243352;}
	.st1{fill:#213355;}
</style>
<g id="Page-2">
	<g id="Artboard-Copy-21" transform="translate(-22.000000, -41.000000)">
		<g transform="translate(23.000000, 42.000000)">
			<g id="Shape">
				<path class="st0" d="M19,5.9c0,0.4-0.3,0.7-0.7,0.7l-15.9,0l4.4,4.1c0.3,0.3,0.3,0.7,0,1C6.7,11.9,6.5,12,6.4,12
					c-0.2,0-0.3-0.1-0.5-0.2L0.2,6.5C0.1,6.3,0,6.1,0,5.9c0-0.2,0.1-0.4,0.2-0.5l5.7-5.2c0.3-0.3,0.7-0.2,1,0s0.2,0.7,0,1L2.6,5.2
					l15.7,0C18.7,5.2,19,5.5,19,5.9z"/>
				<path class="st1" d="M6.4,12.5c-0.3,0-0.6-0.1-0.8-0.3l-5.7-5.4c-0.2-0.2-0.4-0.5-0.4-0.9c0-0.3,0.2-0.7,0.4-0.9l5.6-5.2
					c0.2-0.2,0.5-0.3,0.9-0.3c0.3,0,0.6,0.2,0.8,0.4c0.4,0.5,0.4,1.3-0.1,1.7l-3.3,3l14.4,0c0.7,0,1.2,0.5,1.2,1.2
					c0,0.7-0.5,1.2-1.2,1.2l-14.6,0l3.5,3.3c0.5,0.5,0.5,1.2,0.1,1.7C7,12.3,6.7,12.5,6.4,12.5z M6.4,0.5c0,0-0.1,0-0.1,0.1L0.6,5.8
					c-0.1,0-0.1,0.1-0.1,0.2c0,0.1,0,0.1,0,0.1l5.7,5.4c0,0,0.1,0.1,0.1,0.1c0,0,0.1,0,0.1-0.1c0.1-0.1,0.1-0.2,0-0.3l-5.3-5
					l17.1,0.1c0.1,0,0.2-0.1,0.2-0.2c0-0.1-0.1-0.2-0.2-0.2l-17-0.1l5.2-4.8c0.1-0.1,0.1-0.2,0-0.3C6.5,0.5,6.4,0.5,6.4,0.5
					C6.4,0.5,6.4,0.5,6.4,0.5z"/>
			</g>
		</g>
	</g>
</g>
</svg>
