<?xml version="1.0" encoding="utf-8"?>
<!-- Generator: Adobe Illustrator 22.1.0, SVG Export Plug-In . SVG Version: 6.00 Build 0)  -->
<svg version="1.1" id="Layer_1" xmlns="http://www.w3.org/2000/svg" xmlns:xlink="http://www.w3.org/1999/xlink" x="0px" y="0px"
	 viewBox="0 0 23 21" style="enable-background:new 0 0 23 21;" xml:space="preserve">
<style type="text/css">
	.st0{fill:#555555;}
</style>
<g id="New-Icons">
	<g id="Benefits-grey">
		<path id="Shape" class="st0" d="M20.8,5.5h-4.4c0.3-0.2,0.6-0.4,0.8-0.6c1.1-1.1,1.1-3,0-4.1c-1.1-1.1-3-1.1-4.1,0
			c-0.6,0.6-2.2,3.1-2,4.7h-0.1c0.2-1.6-1.4-4.1-2-4.7C8-0.3,6.1-0.3,5,0.8C3.9,2,3.9,3.8,5,4.9c0.2,0.2,0.5,0.4,0.8,0.6H1.4
			C0.6,5.5,0,6.2,0,6.9v3.5c0,0.4,0.3,0.7,0.7,0.7h0.7v8.3c0,0.8,0.6,1.4,1.4,1.4h16.7c0.8,0,1.4-0.6,1.4-1.4v-8.3h0.7
			c0.4,0,0.7-0.3,0.7-0.7V6.9C22.2,6.2,21.6,5.5,20.8,5.5z M6,1.8C6.3,1.5,6.6,1.4,7,1.4c0.4,0,0.8,0.2,1.1,0.4
			C9,2.8,10,5.2,9.6,5.5c0,0-0.1,0-0.3,0c-1,0-2.8-1-3.4-1.6C5.4,3.4,5.4,2.4,6,1.8z M10.4,19.4H2.8v-8.3h7.6V19.4z M10.4,9.7h-9
			V6.9h8h1V9.7z M14.1,1.8c0.6-0.6,1.5-0.6,2.1,0c0.6,0.6,0.6,1.5,0,2.1c-0.6,0.6-2.4,1.6-3.4,1.6c-0.2,0-0.3,0-0.3,0
			C12.3,5.2,13.2,2.8,14.1,1.8z M19.4,19.4h-7.6v-8.3h7.6V19.4z M20.8,9.7h-9V6.9h1h8V9.7z"/>
	</g>
</g>
</svg>
