<?xml version="1.0" encoding="utf-8"?>
<!-- Generator: Adobe Illustrator 22.1.0, SVG Export Plug-In . SVG Version: 6.00 Build 0)  -->
<svg version="1.1" id="Layer_1" xmlns="http://www.w3.org/2000/svg" xmlns:xlink="http://www.w3.org/1999/xlink" x="0px" y="0px"
	 viewBox="0 0 27 25" style="enable-background:new 0 0 27 25;" xml:space="preserve">
<style type="text/css">
	.st0{opacity:0.2823;fill:#B7CFFF;enable-background:new    ;}
	.st1{fill:#2168F3;}
	.st2{fill:none;stroke:#2168F3;stroke-width:2;stroke-linecap:round;stroke-linejoin:round;}
</style>
<g id="Zeplin_Mobile_New">
	<g id="More-Tab" transform="translate(-26.000000, -422.000000)">
		<g id="noun_chat_1657505_000000" transform="translate(27.000000, 423.000000)">
			<ellipse id="Oval" class="st0" cx="12.5" cy="11" rx="12" ry="11"/>
			<circle id="Oval_1_" class="st1" cx="12.1" cy="11.5" r="1.8"/>
			<circle id="Oval_2_" class="st1" cx="17.8" cy="11.5" r="1.8"/>
			<circle id="Oval_3_" class="st1" cx="6.4" cy="11.5" r="1.8"/>
			<path id="Path" class="st2" d="M12.2,0C5.5,0,0,4.9,0,10.9c0,2.2,0.8,4.3,2,6c-0.2,2-0.7,4.8-2,6.1c0,0,4.2-0.6,7-2.3
				c1.6,0.7,3.3,1,5.2,1c6.7,0,12.1-4.9,12.1-10.9S18.9,0,12.2,0z"/>
		</g>
	</g>
</g>
</svg>
