<?xml version="1.0" encoding="utf-8"?>
<!-- Generator: Adobe Illustrator 23.0.2, SVG Export Plug-In . SVG Version: 6.00 Build 0)  -->
<svg version="1.1" id="Layer_1" xmlns="http://www.w3.org/2000/svg" xmlns:xlink="http://www.w3.org/1999/xlink" x="0px" y="0px"
	 viewBox="0 0 100 100" style="enable-background:new 0 0 100 100;" xml:space="preserve">
<style type="text/css">
	.st0{fill-rule:evenodd;clip-rule:evenodd;fill:#ECF2FF;}
	.st1{fill:#2168F3;}
</style>
<g id="card-close-icon" transform="translate(1137.000000, 771.000000)">
	<circle id="close-bg" class="st0" cx="-1087.1" cy="-720.5" r="39.8"/>
	<path id="close-icon" class="st1" d="M-1075.4-712.2c0.9,1,0.9,2.5,0,3.5c-0.5,0.5-1.1,0.7-1.7,0.7s-1.2-0.2-1.7-0.7l-8.2-8.2
		l-8.2,8.2c-0.5,0.5-1.1,0.7-1.7,0.7s-1.2-0.2-1.7-0.7c-1-1-1-2.5,0-3.5l8.2-8.2l-8.2-8.2c-1-1-1-2.5,0-3.5c0.9-0.9,2.5-0.9,3.5,0
		l8.2,8.2l8.2-8.2c0.9-1,2.5-1,3.5,0c0.9,0.9,0.9,2.5,0,3.5l-8.2,8.2L-1075.4-712.2z"/>
</g>
</svg>
