<?xml version="1.0" encoding="utf-8"?>
<!-- Generator: Adobe Illustrator 23.0.4, SVG Export Plug-In . SVG Version: 6.00 Build 0)  -->
<svg version="1.1" id="Layer_1" xmlns="http://www.w3.org/2000/svg" xmlns:xlink="http://www.w3.org/1999/xlink" x="0px" y="0px"
	 viewBox="0 0 26 22" style="enable-background:new 0 0 26 22;" xml:space="preserve">
<style type="text/css">
	.st0{fill-rule:evenodd;clip-rule:evenodd;fill:#FF9800;}
	.st1{fill-rule:evenodd;clip-rule:evenodd;fill:#FFFFFF;}
</style>
<g id="New-Icons">
	<g id="health-score---yellow">
		<path id="Path" class="st0" d="M19.5,0C15.9,0,13,2.9,13,6.5C13,2.9,10.1,0,6.5,0S0,2.9,0,6.5c0,7,9.5,12.8,12.3,14.4
			c0.4,0.3,1,0.3,1.4,0C16.5,19.4,26,13.5,26,6.5C26,2.9,23.1,0,19.5,0z"/>
		<path class="st1" d="M24.4,11.6h-5.8c-0.6,0-1.2,0.3-1.6,0.9l-0.7,1l-1.5-3.8c-0.1-0.3-0.4-0.5-0.7-0.5c-0.3,0-0.6,0.2-0.7,0.5
			L12,14.4l-1.5-6.2c-0.1-0.3-0.4-0.6-0.7-0.6c-0.3,0-0.6,0.2-0.7,0.5l-0.8,2.7c-0.1,0.4-0.5,0.7-1,0.7H1.6c0.2,0.3,0.4,0.6,0.6,0.8
			h5.1c0.8,0,1.5-0.5,1.8-1.3l0.7-2.3l1.5,6.2c0.1,0.3,0.4,0.6,0.7,0.6c0,0,0,0,0,0c0.3,0,0.6-0.2,0.7-0.5l1.5-4.7l1.5,3.7
			c0.1,0.3,0.3,0.4,0.6,0.5c0.3,0,0.5-0.1,0.7-0.3l0.8-1.2c0.2-0.3,0.5-0.5,0.8-0.5h5.2C24,12.2,24.2,11.9,24.4,11.6z"/>
	</g>
</g>
</svg>
