<?xml version="1.0" encoding="utf-8"?>
<!-- Generator: Adobe Illustrator 22.1.0, SVG Export Plug-In . SVG Version: 6.00 Build 0)  -->
<svg version="1.1" id="Layer_1" xmlns="http://www.w3.org/2000/svg" xmlns:xlink="http://www.w3.org/1999/xlink" x="0px" y="0px"
	 viewBox="0 0 25 21" style="enable-background:new 0 0 25 21;" xml:space="preserve">
<style type="text/css">
	.st0{fill:none;stroke:#555555;stroke-width:1.6;}
	.st1{fill:#555555;stroke:#555555;stroke-width:0.5;stroke-linecap:round;stroke-linejoin:round;}
</style>
<g id="New-Icons">
	<g id="Health-Grey">
		<path id="Shape" class="st0" d="M15.3,17.4c0.1-0.1,0.1-0.1,0.2-0.2c0.1,0,0,0,0,0c0,0,0.1-0.1,0.1-0.1c0,0,0,0,0,0l0.1-0.1
			l6.1-6.4c1-1,1.5-2.3,1.5-3.8c0.1-1.5-0.4-2.8-1.4-3.9c-1-1-2.3-1.6-3.6-1.6c-1.4,0-2.6,0.6-3.6,1.6l-2.1,2.3l-0.6-0.6l-2-2.1
			C9,1.5,7.7,1,6.4,1C5,1,3.8,1.5,2.8,2.5L2.4,3c-1.9,2-1.9,5.4,0,7.5l8.5,8.9c0.3,0.4,0.8,0.5,1.2,0.5c0.5,0,0.9-0.2,1.3-0.5
			L15.3,17.4z M16.5,18.4C16.5,18.4,16.5,18.4,16.5,18.4C16.5,18.4,16.5,18.4,16.5,18.4L16.5,18.4z"/>
		<path id="Shape_1_" class="st1" d="M13,14L13,14c-0.2,0-0.4-0.1-0.4-0.3l-1.5-4.3l-0.9,1.7c-0.1,0.2-0.2,0.2-0.4,0.2h-3
			c-0.2,0-0.5-0.2-0.5-0.5s0.2-0.5,0.5-0.5h2.7l1.3-2.4c0.1-0.2,0.2-0.2,0.4-0.2c0.2,0,0.3,0.1,0.4,0.3l1.4,4.2l1-2.1
			c0.1-0.2,0.2-0.3,0.4-0.3h3.3c0.2,0,0.5,0.2,0.5,0.5s-0.2,0.5-0.5,0.5h-3l-1.3,2.8C13.3,13.9,13.2,14,13,14z"/>
	</g>
</g>
</svg>
