<?xml version="1.0" encoding="utf-8"?>
<!-- Generator: Adobe Illustrator 22.1.0, SVG Export Plug-In . SVG Version: 6.00 Build 0)  -->
<svg version="1.1" id="Layer_1" xmlns="http://www.w3.org/2000/svg" xmlns:xlink="http://www.w3.org/1999/xlink" x="0px" y="0px"
	 viewBox="0 0 25 21" style="enable-background:new 0 0 25 21;" xml:space="preserve">
<style type="text/css">
	.st0{fill:#2168F3;}
	.st1{fill:#DAE7FF;stroke:#DAE7FF;stroke-width:0.5;stroke-linecap:round;stroke-linejoin:round;}
</style>
<g id="New-Icons">
	<g id="Health-blue" transform="translate(0.000000, 0.000000)">
		<path id="Shape" class="st0" d="M12.1,20.8L12.1,20.8c-0.7,0-1.4-0.3-1.8-0.8L1.8,11c-2.2-2.4-2.2-6.2,0-8.6L2.2,2
			c1.1-1.1,2.6-1.8,4.1-1.8s3,0.6,4.1,1.8l2,2.1l1.6-1.7c1.1-1.2,2.6-1.8,4.2-1.8c1.6,0,3.1,0.6,4.2,1.8c1.1,1.2,1.7,2.7,1.7,4.4
			c0,1.7-0.6,3.2-1.7,4.3l-6.1,6.4c-0.1,0.1-0.2,0.2-0.2,0.2c0,0-0.1,0.1-0.1,0.1l-2,2.1C13.4,20.5,12.8,20.8,12.1,20.8z"/>
		<path id="Shape_1_" class="st1" d="M13,14L13,14c-0.2,0-0.4-0.1-0.4-0.3l-1.5-4.3l-0.9,1.7c-0.1,0.2-0.2,0.2-0.4,0.2h-3
			c-0.2,0-0.5-0.2-0.5-0.5s0.2-0.5,0.5-0.5h2.7l1.3-2.4c0.1-0.2,0.2-0.2,0.4-0.2c0.2,0,0.3,0.1,0.4,0.3l1.4,4.2l1-2.1
			c0.1-0.2,0.2-0.3,0.4-0.3h3.3c0.2,0,0.5,0.2,0.5,0.5s-0.2,0.5-0.5,0.5h-3l-1.3,2.8C13.3,13.9,13.2,14,13,14z"/>
	</g>
</g>
</svg>
