<?xml version="1.0" encoding="utf-8"?>
<!-- Generator: Adobe Illustrator 23.0.4, SVG Export Plug-In . SVG Version: 6.00 Build 0)  -->
<svg version="1.1" id="Layer_1" xmlns="http://www.w3.org/2000/svg" xmlns:xlink="http://www.w3.org/1999/xlink" x="0px" y="0px"
	 viewBox="0 0 240 180" style="enable-background:new 0 0 240 180;" xml:space="preserve">
<style type="text/css">
	.st0{enable-background:new    ;}
	.st1{fill:#D3DBE6;}
</style>
<title>Health Benefits Simp</title>
<desc>Created with Sketch.</desc>
<g id="images-size">
	<g id="Dashboard-New-Copy-7" transform="translate(-24.000000, -6268.000000)">
		<g class="st0">
			<path class="st1" d="M34.9,6321.8h-8v-50.6h8v21.7h9v-21.7H52v50.6h-8.1v-21.7h-9V6321.8z"/>
			<path class="st1" d="M65.7,6292.5h10.9v7.2H65.7v14.8h13.7v7.2H57.8v-50.6h21.7v7.2H65.7V6292.5z"/>
			<path class="st1" d="M110.1,6321.8h-8l-1.4-9.2H91l-1.4,9.2h-7.3l8.1-50.6H102L110.1,6321.8z M92,6305.7h7.7l-3.8-25.6L92,6305.7
				z"/>
			<path class="st1" d="M113.8,6271.2h8v43.4h13.1v7.2h-21V6271.2z"/>
			<path class="st1" d="M132.4,6271.2H157v7.2h-8.3v43.4h-8v-43.4h-8.3V6271.2z"/>
			<path class="st1" d="M168.4,6321.8h-8v-50.6h8v21.7h9v-21.7h8.1v50.6h-8.1v-21.7h-9V6321.8z"/>
		</g>
		<g>
		</g>
		<g class="st0">
			<path class="st1" d="M50.7,6339.4v1.8c0,5.2-1.6,8.5-5.1,10.2c4.3,1.7,5.9,5.5,5.9,10.8v4.1c0,7.8-4.1,12-12.1,12H26.9v-50.6h12
				C47.2,6327.8,50.7,6331.6,50.7,6339.4z M34.9,6335v13.4H38c3,0,4.8-1.3,4.8-5.3v-2.8c0-3.6-1.2-5.2-4-5.2H34.9z M34.9,6355.6
				v15.5h4.6c2.7,0,4.1-1.2,4.1-5v-4.4c0-4.7-1.5-6.1-5.1-6.1H34.9z"/>
			<path class="st1" d="M64.2,6349.1h10.9v7.2H64.2v14.8H78v7.2H56.3v-50.6H78v7.2H64.2V6349.1z"/>
			<path class="st1" d="M90,6341.8v36.6h-7.2v-50.6h10l8.2,30.3v-30.3h7.1v50.6h-8.2L90,6341.8z"/>
			<path class="st1" d="M121.7,6349.1h10.9v7.2h-10.9v14.8h13.7v7.2h-21.7v-50.6h21.7v7.2h-13.7V6349.1z"/>
			<path class="st1" d="M148.3,6350.3h10.3v7.2h-10.3v20.9h-8v-50.6h21v7.2h-13.1V6350.3z"/>
			<path class="st1" d="M165.2,6327.8h8v50.6h-8V6327.8z"/>
			<path class="st1" d="M176.6,6327.8h24.6v7.2h-8.3v43.4h-8V6335h-8.3V6327.8z"/>
			<path class="st1" d="M215.4,6327.2c7.7,0,11.7,4.6,11.7,12.7v1.6h-7.5v-2.1c0-3.6-1.4-5-4-5c-2.5,0-4,1.4-4,5
				c0,10.4,15.5,12.4,15.5,26.8c0,8.1-4,12.7-11.9,12.7s-11.9-4.6-11.9-12.7v-3.1h7.5v3.6c0,3.6,1.6,4.9,4.1,4.9
				c2.5,0,4.1-1.3,4.1-4.9c0-10.4-15.5-12.4-15.5-26.8C203.6,6331.9,207.6,6327.2,215.4,6327.2z"/>
		</g>
		<g>
		</g>
		<g class="st0">
			<path class="st1" d="M37.6,6383.9c7.7,0,11.7,4.6,11.7,12.7v1.6h-7.5v-2.1c0-3.6-1.4-5-4-5c-2.5,0-4,1.4-4,5
				c0,10.4,15.5,12.4,15.5,26.8c0,8.1-4,12.7-11.9,12.7s-11.9-4.6-11.9-12.7v-3.1h7.5v3.6c0,3.6,1.6,4.9,4.1,4.9
				c2.5,0,4.1-1.3,4.1-4.9c0-10.4-15.5-12.4-15.5-26.8C25.9,6388.5,29.9,6383.9,37.6,6383.9z"/>
			<path class="st1" d="M54,6384.5h8v50.6h-8V6384.5z"/>
			<path class="st1" d="M84.5,6420.4l5.4-35.9H101v50.6h-7.5v-36.3l-5.5,36.3h-7.5l-5.9-35.8v35.8h-6.9v-50.6h11.1L84.5,6420.4z"/>
			<path class="st1" d="M130.4,6397v6.6c0,8.1-3.9,12.5-11.9,12.5h-3.8v19h-8v-50.6h11.7C126.5,6384.5,130.4,6388.9,130.4,6397z
				 M114.7,6391.7v17.1h3.8c2.5,0,3.9-1.2,3.9-4.8v-7.6c0-3.6-1.4-4.8-3.9-4.8H114.7z"/>
			<path class="st1" d="M134.4,6384.5h8v43.4h13.1v7.2h-21V6384.5z"/>
			<path class="st1" d="M158.9,6384.5h8v50.6h-8V6384.5z"/>
			<path class="st1" d="M180.6,6406.9h10.3v7.2h-10.3v20.9h-8v-50.6h21v7.2h-13.1V6406.9z"/>
			<path class="st1" d="M197.5,6384.5h8v50.6h-8V6384.5z"/>
			<path class="st1" d="M219.2,6405.8h10.9v7.2h-10.9v14.8h13.7v7.2h-21.7v-50.6h21.7v7.2h-13.7V6405.8z"/>
			<path class="st1" d="M237.8,6384.5h12.6c8,0,11.9,4.4,11.9,12.5v25.6c0,8.1-3.9,12.5-11.9,12.5h-12.6V6384.5z M245.8,6391.7v36.1
				h4.5c2.5,0,4-1.3,4-4.9v-26.3c0-3.6-1.5-4.9-4-4.9H245.8z"/>
		</g>
	</g>
</g>
</svg>
