<?xml version="1.0" encoding="utf-8"?>
<!-- Generator: Adobe Illustrator 22.1.0, SVG Export Plug-In . SVG Version: 6.00 Build 0)  -->
<svg version="1.1" id="Layer_1" xmlns="http://www.w3.org/2000/svg" xmlns:xlink="http://www.w3.org/1999/xlink" x="0px" y="0px"
	 viewBox="0 0 21 25" style="enable-background:new 0 0 21 25;" xml:space="preserve">
<style type="text/css">
	.st0{fill:#2168F3;stroke:#2168F3;stroke-width:0.7;}
	.st1{fill:#3FCB7F;stroke:#3FCB7F;}
</style>
<g id="Zeplin_Mobile_New">
	<g id="Improve-Copy-8" transform="translate(-24.000000, -523.000000)">
		<g id="Group-2" transform="translate(25.000000, 524.000000)">
			<g id="doctor-stethoscope">
				<path id="Path" class="st0" d="M18.3,2.2c-0.6-1-1.6-1.6-2.8-1.6v1.1c0.8,0,1.4,0.4,1.8,1c0.4,0.7,0.4,1.4,0,2.1l-3.7,6.3
					c-0.4,0.7-1.1,1-1.8,1c-0.8,0-1.4-0.4-1.8-1L6.4,4.8C6,4.2,6,3.4,6.4,2.8s1.1-1,1.8-1V0.6C7.1,0.6,6,1.2,5.4,2.2s-0.6,2.2,0,3.2
					l3.7,6.3c0.5,0.8,1.3,1.4,2.2,1.6v3.1c0,3-1.8,5.4-3.9,5.4s-3.9-2.4-3.9-5.4v-3.6c1.3-0.3,2.3-1.4,2.3-2.8
					c0-1.6-1.3-2.8-2.8-2.8S0,8.4,0,9.9c0,1.4,1,2.5,2.3,2.8v3.6c0,3.6,2.3,6.6,5.1,6.6c2.8,0,5.1-2.9,5.1-6.6v-3.1
					c0.9-0.2,1.7-0.7,2.2-1.6l3.7-6.3C18.9,4.4,18.9,3.2,18.3,2.2z"/>
				<circle id="Oval" class="st1" cx="8.8" cy="1.1" r="1.1"/>
				<circle id="Oval_1_" class="st1" cx="14.9" cy="1.1" r="1.1"/>
			</g>
		</g>
	</g>
</g>
</svg>
