<?xml version="1.0" encoding="utf-8"?>
<!-- Generator: Adobe Illustrator 22.1.0, SVG Export Plug-In . SVG Version: 6.00 Build 0)  -->
<svg version="1.1" id="Layer_1" xmlns="http://www.w3.org/2000/svg" xmlns:xlink="http://www.w3.org/1999/xlink" x="0px" y="0px"
	 viewBox="0 0 21 21" style="enable-background:new 0 0 21 21;" xml:space="preserve">
<style type="text/css">
	.st0{fill:#2168F3;}
</style>
<g id="New-Icons">
	<g id="Home-Blue" transform="translate(0.000000, 0.000000)">
		<path id="Shape" class="st0" d="M19.5,9.4h-6.7c-0.7,0-1.4-0.6-1.4-1.4V1.4c0-0.7,0.6-1.4,1.4-1.4h6.7c0.7,0,1.4,0.6,1.4,1.4V8
			C20.9,8.8,20.3,9.4,19.5,9.4z"/>
		<path id="Shape_1_" class="st0" d="M8,20.9H1.4c-0.7,0-1.4-0.6-1.4-1.4v-6.7c0-0.7,0.6-1.4,1.4-1.4H8c0.7,0,1.4,0.6,1.4,1.4v6.7
			C9.4,20.3,8.8,20.9,8,20.9z"/>
		<path id="Shape_2_" class="st0" d="M8,9.4H1.4C0.6,9.4,0,8.8,0,8V1.4C0,0.6,0.6,0,1.4,0H8c0.7,0,1.4,0.6,1.4,1.4V8
			C9.4,8.8,8.8,9.4,8,9.4z"/>
		<path id="Shape_3_" class="st0" d="M19.5,20.9h-6.7c-0.7,0-1.4-0.6-1.4-1.4v-6.7c0-0.7,0.6-1.4,1.4-1.4h6.7c0.7,0,1.4,0.6,1.4,1.4
			v6.7C20.9,20.3,20.3,20.9,19.5,20.9z"/>
	</g>
</g>
</svg>
