<?xml version="1.0" encoding="utf-8"?>
<!-- Generator: Adobe Illustrator 22.1.0, SVG Export Plug-In . SVG Version: 6.00 Build 0)  -->
<svg version="1.1" id="Layer_1" xmlns="http://www.w3.org/2000/svg" xmlns:xlink="http://www.w3.org/1999/xlink" x="0px" y="0px"
	 viewBox="0 0 26 11" style="enable-background:new 0 0 26 11;" xml:space="preserve">
<style type="text/css">
	.st0{fill:#2168F3;}
</style>
<g id="New-Icons">
	<g id="Improve-blue">
		<path id="Shape" class="st0" d="M20.4,0.2c-3.4,0-6.2,2.6-7.4,4c-1.2-1.4-4.1-4-7.4-4c-3,0-5.4,2.4-5.4,5.3s2.4,5.3,5.4,5.3
			c3.4,0,6.2-2.6,7.4-4c1.2,1.4,4.1,4,7.4,4c3,0,5.4-2.4,5.4-5.3S23.4,0.2,20.4,0.2z M10.3,7.1c-2,1.7-3.7,2.1-4.7,2.1
			c-2.1,0-3.7-1.6-3.7-3.7s1.6-3.7,3.7-3.7c2.9,0,5.4,2.6,6.3,3.7C11.6,5.9,11,6.5,10.3,7.1z M20.4,9.2c-2.9,0-5.4-2.6-6.3-3.7
			c1-1.1,3.5-3.7,6.3-3.7c2.1,0,3.7,1.6,3.7,3.7S22.5,9.2,20.4,9.2z"/>
	</g>
</g>
</svg>
