<?xml version="1.0" encoding="utf-8"?>
<!-- Generator: Adobe Illustrator 22.1.0, SVG Export Plug-In . SVG Version: 6.00 Build 0)  -->
<svg version="1.1" id="Layer_1" xmlns="http://www.w3.org/2000/svg" xmlns:xlink="http://www.w3.org/1999/xlink" x="0px" y="0px"
	 viewBox="0 0 24 25" style="enable-background:new 0 0 24 25;" xml:space="preserve">
<style type="text/css">
	.st0{fill:#B7CFFF;}
	.st1{fill:#2168F3;stroke:#2168F3;stroke-width:0.5;}
	.st2{fill:#F1FAFF;}
	.st3{fill:#2168F3;}
</style>
<g id="Zeplin_Mobile_New">
	<g id="Improve-Copy-3" transform="translate(-22.000000, -638.000000)">
		<g id="pills-_x28_1_x29_" transform="translate(23.000000, 639.000000)">
			<polygon id="Path" class="st0" points="3.8,7.4 10.7,11.5 14.2,5.3 13.5,2.1 11.4,0.7 9.3,0.5 7.2,1.6 			"/>
			<path id="Shape" class="st1" d="M14.4,3.3c-0.3-1.2-1-2.1-2.1-2.7C11.7,0.2,10.9,0,10.1,0C8.5,0,7.1,0.9,6.3,2.2L3.5,7.2l0,0l0,0
				l-2.8,4.9c-1.2,2.2-0.5,4.9,1.6,6.2c0.7,0.4,1.4,0.6,2.2,0.6c1.5,0,2.8-0.7,3.7-1.9c0,0,0,0,0,0L14,6.7
				C14.6,5.7,14.7,4.5,14.4,3.3z M7.4,16.4c-0.7,0.9-1.8,1.5-2.9,1.5c-0.6,0-1.2-0.2-1.8-0.5c-1.7-1-2.3-3.2-1.3-4.9L4,8l1,0.6l0,0
				l0,0l5.2,3L7.4,16.4z M13.2,6.3l-2.6,4.5L5.8,8L7,5.8c0.1-0.2,0-0.5-0.2-0.6s-0.5,0-0.6,0.2L5,7.6L4.4,7.2L7,2.7
				c0.6-1.1,1.8-1.8,3.1-1.8c0.6,0,1.2,0.2,1.8,0.5c0.8,0.5,1.4,1.3,1.7,2.2C13.8,4.5,13.7,5.5,13.2,6.3z"/>
			<polygon id="Path-8" class="st2" points="16.5,15.4 13.5,15.4 11.2,16.4 10.8,16.9 10.8,21.4 12.6,22.2 16.4,22.6 19.8,22.2 
				21.7,21.4 21.7,17.4 21.7,16.4 18.3,15.4 			"/>
			<path id="Shape_1_" class="st1" d="M20.3,15.4c-1.1-0.3-2.5-0.5-4-0.5c-1.5,0-2.9,0.2-4,0.5c-1.3,0.4-1.9,0.9-1.9,1.6
				c0,0,0,0,0,0v4c0,0.7,0.7,1.2,1.9,1.6c1.1,0.3,2.5,0.5,4,0.5s3-0.2,4-0.5c1.3-0.4,1.9-0.9,1.9-1.6v-4c0,0,0,0,0,0
				C22.3,16.3,21.6,15.7,20.3,15.4z M12.5,16.2c1-0.3,2.4-0.4,3.8-0.4c1.4,0,2.8,0.2,3.8,0.4c1.1,0.3,1.3,0.6,1.3,0.7l0,0
				c0,0.1-0.2,0.4-1.3,0.7c-1,0.3-2.4,0.4-3.8,0.4c-1.4,0-2.8-0.2-3.8-0.4c-1.1-0.3-1.3-0.6-1.3-0.7C11.2,16.9,11.4,16.5,12.5,16.2z
				 M21.4,20.9c0,0.1-0.2,0.4-1.3,0.7c-1,0.3-2.4,0.4-3.8,0.4s-2.8-0.2-3.8-0.4c-1.1-0.3-1.3-0.6-1.3-0.7v-2.8
				c0.3,0.2,0.6,0.3,1.1,0.4c1.1,0.3,2.5,0.5,4,0.5s2.9-0.2,4-0.5c0.4-0.1,0.8-0.3,1.1-0.4v1.1c-0.6,0.3-1.4,0.6-2.3,0.7
				c-0.2,0-0.4,0.3-0.4,0.5c0,0.2,0.2,0.4,0.4,0.4c0,0,0.1,0,0.1,0c0.8-0.2,1.5-0.4,2.2-0.6L21.4,20.9z"/>
			<path id="Path_1_" class="st3" d="M7.5,4.1C7.3,3.9,7.1,4,6.9,4.2l0,0c-0.1,0.2,0,0.5,0.2,0.6c0.1,0,0.1,0.1,0.2,0.1
				c0.2,0,0.3-0.1,0.4-0.2l0,0C7.8,4.5,7.8,4.2,7.5,4.1z"/>
			<path id="Path_2_" class="st3" d="M18.2,20.5c0-0.2-0.2-0.4-0.5-0.4h0c-0.2,0-0.4,0.2-0.4,0.5c0,0.2,0.2,0.4,0.4,0.4c0,0,0,0,0,0
				h0C18.1,21,18.3,20.8,18.2,20.5z"/>
		</g>
	</g>
</g>
</svg>
