<svg xmlns="http://www.w3.org/2000/svg" xmlns:xlink="http://www.w3.org/1999/xlink" width="17" height="18" viewBox="0 0 17 18">
    <defs>
        <path id="a" d="M0 .012h16.755V14.19H0z"/>
        <path id="c" d="M.05.056h5.77v2.88H.05z"/>
    </defs>
    <g fill="none" fill-rule="evenodd">
        <g transform="translate(0 .096)">
            <mask id="b" fill="#fff">
                <use xlink:href="#a"/>
            </mask>
            <path fill="#333" d="M8.364 12.897h3.83c.852 0 1.703.006 2.555-.002.424-.004.703-.26.716-.624.012-.356-.241-.59-.65-.667-.252-.046-.518-.116-.732-.25-.42-.26-.554-.69-.554-1.17 0-1.287.02-2.573-.01-3.859-.05-2.225-1.466-4.093-3.582-4.777a5.126 5.126 0 0 0-5.689 1.825c-.716.969-1.036 2.056-1.03 3.252.005 1.178-.002 2.355.003 3.533.002.49-.117.936-.553 1.197-.238.142-.534.199-.812.258-.337.073-.575.328-.566.66.01.318.247.572.58.612.108.013.218.012.326.012h6.168zm6.463-2.591c.764.078 1.355.396 1.714 1.07.626 1.176-.194 2.681-1.522 2.796-.126.01-.253.014-.38.014-4.175 0-8.35-.004-12.526.004-.8.002-1.443-.271-1.847-.97-.685-1.185.018-2.64 1.37-2.872l.294-.047v-.295c.003-1.259-.023-2.518.015-3.776A6.397 6.397 0 0 1 7.044.15c3.573-.732 6.912 1.502 7.651 5.058.095.457.119.935.126 1.404.018 1.132.006 2.264.006 3.397v.296z" mask="url(#b)"/>
        </g>
        <g transform="translate(5.437 14.233)">
            <mask id="d" fill="#fff">
                <use xlink:href="#c"/>
            </mask>
            <path fill="#333" d="M1.307.056c.207 1.036.812 1.636 1.65 1.596.864-.04 1.534-.642 1.6-1.593h1.256c.103 1.189-.984 2.773-2.675 2.872C1.228 3.042.007 1.436.05.056h1.256z" mask="url(#d)"/>
        </g>
    </g>
</svg>
