<?xml version="1.0" encoding="utf-8"?>
<!-- Generator: Adobe Illustrator 22.1.0, SVG Export Plug-In . SVG Version: 6.00 Build 0)  -->
<svg version="1.1" id="Layer_1" xmlns="http://www.w3.org/2000/svg" xmlns:xlink="http://www.w3.org/1999/xlink" x="0px" y="0px"
	 viewBox="0 0 27 23" style="enable-background:new 0 0 27 23;" xml:space="preserve">
<style type="text/css">
	.st0{opacity:0.5844;}
	.st1{fill:#FFC72D;}
	.st2{fill:#B7CFFF;stroke:#2168F3;stroke-width:1.5;}
	.st3{fill:none;stroke:#2168F3;stroke-width:1.6;}
	.st4{fill:#3FCB7F;}
</style>
<g id="Zeplin_Mobile_New">
	<g id="More-Tab" transform="translate(-26.000000, -500.000000)">
		<g id="Group-5" transform="translate(26.000000, 500.000000)">
			<g id="noun_chat_1440162_000000" transform="translate(16.000000, 0.000000)" class="st0">
				<path id="Path" class="st1" d="M2.5,8.5C2.4,9.4,1.3,9.9,1.3,9.9c1.9,0.3,2.8-0.3,3.2-0.7c0.3,0,0.7,0.1,1,0.1
					c3,0,5.5-2.1,5.5-4.6S8.5,0,5.5,0S0,2.1,0,4.6C0,6.3,1,7.7,2.5,8.5z"/>
			</g>
			<g id="Group-3" transform="translate(0.000000, 2.000000)">
				<path id="Rectangle" class="st2" d="M9.5,0.8L9.5,0.8c2.1,0,3.8,1.7,3.8,3.8l0,0c0,2.1-1.7,3.8-3.8,3.8l0,0
					c-2.1,0-3.8-1.7-3.8-3.8l0,0C5.8,2.4,7.4,0.8,9.5,0.8z"/>
				<path id="Rectangle_1_" class="st3" d="M5,10.8c-2.3,0-4.2,1.9-4.2,4.2v4c0,0.7,0.5,1.2,1.2,1.2h14c0.7,0,1.2-0.5,1.2-1.2v-4
					c0-2.3-1.9-4.2-4.2-4.2H5z"/>
			</g>
			<path id="Path_1_" class="st4" d="M15,18c0,0.3-0.2,0.6-0.6,0.6h-0.9v0.9c0,0.3-0.2,0.5-0.6,0.5c-0.3,0-0.5-0.2-0.5-0.5v-0.9
				h-0.9c-0.3,0-0.6-0.2-0.6-0.6s0.2-0.5,0.6-0.5h0.9v-0.9c0-0.3,0.2-0.5,0.5-0.5c0.3,0,0.6,0.2,0.6,0.5v0.9h0.9
				C14.8,17.5,15,17.7,15,18z"/>
		</g>
	</g>
</g>
</svg>
