<?xml version="1.0" encoding="utf-8"?>
<!-- Generator: Adobe Illustrator 22.1.0, SVG Export Plug-In . SVG Version: 6.00 Build 0)  -->
<svg version="1.1" id="Layer_1" xmlns="http://www.w3.org/2000/svg" xmlns:xlink="http://www.w3.org/1999/xlink" x="0px" y="0px"
	 viewBox="0 0 24 24" style="enable-background:new 0 0 24 24;" xml:space="preserve">
<style type="text/css">
	.st0{fill:#B7CFFF;}
	.st1{fill:#2168F3;}
</style>
<g id="Zeplin_Mobile_New">
	<g id="Health-1" transform="translate(-25.000000, -513.000000)">
		<g id="injection-2" transform="translate(21.000000, 511.000000)">
			
				<g id="injection" transform="translate(15.000000, 15.000000) rotate(45.000000) translate(-15.000000, -15.000000) translate(8.000000, 1.000000)">
				<path id="Path" class="st0" d="M8.7,7.3V3.7h1.6c0.8,0,1.5-0.7,1.5-1.5s-0.7-1.5-1.5-1.5H3.8c-0.8,0-1.5,0.7-1.5,1.5
					s0.7,1.5,1.5,1.5h1.6v3.6"/>
				<g id="Group">
					<path id="Path_1_" class="st1" d="M8.7,8.1c-0.4,0-0.8-0.4-0.8-0.8V3.7c0-0.4,0.4-0.8,0.8-0.8h1.6c0.4,0,0.7-0.3,0.7-0.7
						s-0.3-0.7-0.7-0.7H3.8c-0.4,0-0.7,0.3-0.7,0.7s0.3,0.7,0.7,0.7h1.6c0.4,0,0.8,0.4,0.8,0.8v3.6c0,0.4-0.4,0.8-0.8,0.8
						S4.5,7.7,4.5,7.3V4.5H3.8c-1.2,0-2.3-1-2.3-2.3S2.5,0,3.8,0l6.5,0c1.2,0,2.3,1,2.3,2.3s-1,2.3-2.3,2.3H9.5v2.8
						C9.5,7.7,9.1,8.1,8.7,8.1z"/>
					<path id="Path_2_" class="st1" d="M13.2,8.7H0.8C0.4,8.7,0,8.3,0,7.9c0-0.4,0.4-0.8,0.8-0.8h12.4c0.4,0,0.8,0.4,0.8,0.8
						C14,8.3,13.6,8.7,13.2,8.7z"/>
					<path id="Path_3_" class="st1" d="M7,28c-0.4,0-0.8-0.4-0.8-0.8V25c0-0.4,0.4-0.8,0.8-0.8c0.4,0,0.8,0.4,0.8,0.8v2.2
						C7.8,27.6,7.4,28,7,28z"/>
					<path id="Path_4_" class="st1" d="M11.2,11c-0.4,0-0.8-0.4-0.8-0.8V8.2c0-0.4,0.4-0.8,0.8-0.8c0.4,0,0.8,0.4,0.8,0.8v1.9
						C12,10.6,11.7,11,11.2,11z"/>
					<path id="Path_5_" class="st1" d="M7.1,25.7c-2.7,0-4.9-2.2-4.9-4.9V8.2c0-0.4,0.4-0.8,0.8-0.8s0.8,0.4,0.8,0.8v12.6
						c0,1.8,1.5,3.3,3.3,3.3c1.8,0,3.3-1.5,3.3-3.3v-7.4c0-0.4,0.4-0.8,0.8-0.8c0.4,0,0.8,0.4,0.8,0.8v7.4
						C12,23.6,9.8,25.7,7.1,25.7z"/>
					<path id="Path_6_" class="st1" d="M6.5,13.9H3.1c-0.4,0-0.8-0.4-0.8-0.8s0.4-0.8,0.8-0.8h3.4c0.4,0,0.8,0.4,0.8,0.8
						S7,13.9,6.5,13.9z"/>
					<path id="Path_7_" class="st1" d="M6.3,17H3.2c-0.4,0-0.8-0.4-0.8-0.8s0.4-0.8,0.8-0.8h3.1c0.4,0,0.8,0.4,0.8,0.8
						S6.7,17,6.3,17z"/>
					<path id="Path_8_" class="st1" d="M6.3,20.1H3.2c-0.4,0-0.8-0.4-0.8-0.8s0.4-0.8,0.8-0.8h3.1c0.4,0,0.8,0.4,0.8,0.8
						S6.7,20.1,6.3,20.1z"/>
				</g>
			</g>
		</g>
	</g>
</g>
</svg>
