<?xml version="1.0" encoding="utf-8"?>
<!-- Generator: Adobe Illustrator 22.1.0, SVG Export Plug-In . SVG Version: 6.00 Build 0)  -->
<svg version="1.1" id="Layer_1" xmlns="http://www.w3.org/2000/svg" xmlns:xlink="http://www.w3.org/1999/xlink" x="0px" y="0px"
	 viewBox="0 0 18 24" style="enable-background:new 0 0 18 24;" xml:space="preserve">
<style type="text/css">
	.st0{fill:#EBF1FF;}
	.st1{fill:#2168F3;}
	.st2{fill:#FF6969;}
</style>
<g id="Zeplin_Mobile_New">
	<g id="More-Tab" transform="translate(-30.000000, -661.000000)">
		<g id="Wearable" transform="translate(30.000000, 661.000000)">
			<path id="Rectangle" class="st0" d="M3,5h11c1.1,0,2,0.9,2,2v10c0,1.1-0.9,2-2,2H3c-1.1,0-2-0.9-2-2V7C1,5.9,1.9,5,3,5z"/>
			<g id="noun_Wearable-device_1609265_000000">
				<path id="Shape" class="st1" d="M17.2,12.8c0.4,0,0.8,0.3,0.8,0.8s-0.3,0.8-0.8,0.8h-0.5v2.6c0,1.6-1.3,2.9-2.8,2.9h-0.3L12,23
					c-0.3,0.6-0.9,1-1.5,1H6.2c-0.7,0-1.2-0.4-1.5-1l-1.5-3.2H2.9c-1.6,0-2.9-1.3-2.9-2.8V7.3c0-1.6,1.3-2.9,2.9-2.9h0.2L4.7,1
					c0.3-0.6,0.8-1,1.5-1h4.3c0.6,0,1.2,0.4,1.5,1l1.6,3.4h0.2c1.6,0,2.8,1.3,2.8,2.9v2.5h0.5c0.4,0,0.8,0.3,0.8,0.8
					s-0.3,0.8-0.8,0.8h-0.5v1.5H17.2z M15.2,16.8V7.2c0-0.8-0.6-1.3-1.4-1.3H2.9c-0.8,0-1.4,0.6-1.4,1.3v9.6c0,0.8,0.6,1.4,1.4,1.4
					h10.9C14.6,18.2,15.2,17.6,15.2,16.8z"/>
				<path id="Path" class="st2" d="M8.5,14.8C8.5,14.8,8.5,14.8,8.5,14.8c-0.2,0-0.4-0.2-0.4-0.3l-1.2-4.2l-1,1.9
					c-0.1,0.2-0.2,0.2-0.4,0.2H4.5c-0.2,0-0.4-0.2-0.4-0.5c0-0.2,0.2-0.4,0.4-0.4h0.8l1.4-2.7c0.1-0.1,0.3-0.3,0.4-0.2
					c0.2,0,0.3,0.1,0.4,0.3L8.6,13l1.3-2.9c0.1-0.2,0.2-0.3,0.4-0.3s0.3,0.1,0.4,0.2l0.8,1.5h0.8c0.2,0,0.5,0.2,0.5,0.4
					c0,0.2-0.2,0.4-0.5,0.4h-1.1c-0.1,0-0.3-0.1-0.4-0.2l-0.5-0.9l-1.4,3.2C8.9,14.6,8.7,14.8,8.5,14.8z"/>
			</g>
		</g>
	</g>
</g>
</svg>
