<?xml version="1.0" encoding="utf-8"?>
<!-- Generator: Adobe Illustrator 23.0.2, SVG Export Plug-In . SVG Version: 6.00 Build 0)  -->
<svg version="1.1" id="Layer_1" xmlns="http://www.w3.org/2000/svg" xmlns:xlink="http://www.w3.org/1999/xlink" x="0px" y="0px"
	 viewBox="0 0 375 235" style="enable-background:new 0 0 375 235;" xml:space="preserve">
<style type="text/css">
	.st0{fill:#EEF2F6;}
	.st1{fill:#E5ECF7;}
	.st2{fill:#FFC400;}
	.st3{fill:#F1F6FA;}
	.st4{fill:#160F62;}
	.st5{fill:#D9E2F5;}
	.st6{fill:#FFCFAD;}
	.st7{fill:#251F7C;}
	.st8{fill:#FFB100;}
	.st9{fill:#A3D7FF;}
	.st10{fill:#F7B400;}
	.st11{fill:#474376;}
	.st12{fill:#191435;}
	.st13{fill:#FFE19C;}
	.st14{fill:#DAE5F2;}
</style>
<path class="st0" d="M197.9,205.2c67.6-9.9,67.8-5.8,93.3-2.6c25.6,3.2,52.4,7.5,25.8-20c-20.6-21.3,17.5-20.9-14.5-49.2
	c-18.5-16.3-60.2-9.6-98.6,24s-27,39.2-71.5,46.3C88,210.7,197.9,205.2,197.9,205.2z"/>
<path class="st1" d="M331,211c3.4,0,5.6-2.5,4-4.8c-8.6-11.9-34.4-41.9-74.2-40.1c-49.6,2.3-67.2,38.5-121.1,35.6
	c-21-1.1-38.7,0-52.4,1.8c-6.2,0.8-5.4,7.3,1,7.3L331,211L331,211L331,211z"/>
<g id="Clouds_1_">
	<circle class="st2" cx="93.3" cy="8.6" r="4.5"/>
	<path class="st0" d="M333.4,30.6c0,0-2.5-2.9-4-4.1c-2.7-2.3-5.8-6.4-15.8-3.4c-0.8,0.2-1.5,0.6-2.3,0.9c-0.9,0.4-3.6,0.4-6.3-1.8
		c-4.4-3.5-6.1-6.2-12.2-6.3c-7.1-0.1-8.2,8.7-13.7,11c-3.5,1.4-12.7,2.9-14.6,3.5L333.4,30.6z"/>
	<path class="st0" d="M108.7,14.4c0,0-1.5-1.7-2.5-2.5c-1.7-1.4-3.6-4-9.8-2.1c-0.5,0.2-1,0.3-1.4,0.6c-0.6,0.2-2.2,0.2-4-1.1
		c-2.7-2.1-3.8-3.8-7.5-3.8c-4.4-0.1-5,5.4-8.4,6.7c-2.1,0.9-7.9,1.7-9,2.1L108.7,14.4z"/>
	<path class="st0" d="M93.9,6.1c0,0,0.5-0.6,0.8-0.8c0.6-0.5,1.2-1.3,3.2-0.7c0.2,0.1,0.3,0.1,0.5,0.2c0.1,0.1,0.6,0.1,1.2-0.4
		c0.9-0.7,1.2-1.3,2.5-1.3c1.4,0,1.7,1.7,2.7,2.2c0.7,0.3,2.5,0.6,2.9,0.7L93.9,6.1z"/>
</g>
<ellipse class="st3" cx="245.7" cy="226.2" rx="57.3" ry="5.7"/>
<path class="st4" d="M262,120.1l-36.9-11.9c-1.4-0.5-2.1-2-1.7-3.3l7.1-22.1c0.5-1.4,2-2.1,3.3-1.7l36.9,11.9c1.4,0.5,2.1,2,1.7,3.3
	l-7.1,22.1C264.9,119.8,263.4,120.5,262,120.1z"/>
<g>
	<g>
		<path class="st5" d="M132.7,105.2c-0.6,0-1.3,0-2,0c-0.2,0-0.4-0.2-0.4-0.5s0.2-0.5,0.4-0.5c0.6,0,1.3,0,2,0c0.4,0,0.9,0,1.3,0
			c0.2,0,0.4,0.2,0.4,0.5c0,0.2-0.2,0.5-0.4,0.5C133.5,105.2,133,105.2,132.7,105.2z M137.3,105c-0.2,0-0.4-0.2-0.4-0.4
			c0-0.2,0.2-0.5,0.4-0.5c1-0.1,2.1-0.2,3.3-0.3c0.2,0,0.4,0.2,0.5,0.4c0,0.2-0.2,0.5-0.4,0.5C139.4,104.8,138.4,104.9,137.3,105
			L137.3,105z M127.4,104.9L127.4,104.9c-1.2-0.2-2.3-0.3-3.3-0.5c-0.2-0.1-0.4-0.2-0.3-0.6c0-0.2,0.2-0.4,0.5-0.4
			c1,0.2,2.1,0.3,3.3,0.5c0.2,0,0.4,0.2,0.4,0.5C127.8,104.8,127.7,104.9,127.4,104.9z M143.8,104.3c-0.2,0-0.4-0.2-0.4-0.4
			c0-0.2,0.2-0.5,0.3-0.5c1.1-0.2,2.1-0.3,3.3-0.6c0.2-0.1,0.4,0.2,0.5,0.4c0,0.2-0.1,0.5-0.3,0.6C146,104,145,104.1,143.8,104.3
			L143.8,104.3z M121,103.7L121,103.7c-1.2-0.3-2.2-0.7-3.3-1.2c-0.2-0.1-0.3-0.3-0.2-0.6c0.1-0.2,0.3-0.3,0.6-0.2
			c1,0.4,2,0.8,3.1,1.1c0.2,0.1,0.3,0.3,0.3,0.6C121.3,103.5,121.1,103.7,121,103.7z M150.3,103.2c-0.2,0-0.4-0.2-0.4-0.4
			c-0.1-0.2,0.1-0.5,0.3-0.6c1.1-0.2,2.1-0.5,3.2-0.7c0.2-0.1,0.5,0.1,0.5,0.3c0.1,0.2-0.1,0.5-0.3,0.6
			C152.5,102.7,151.4,102.9,150.3,103.2L150.3,103.2z M156.6,101.6c-0.2,0-0.3-0.2-0.4-0.3c-0.1-0.2,0.1-0.5,0.3-0.6
			c1.1-0.3,2.1-0.6,3.2-1c0.2-0.1,0.5,0.1,0.5,0.3c0.1,0.2-0.1,0.5-0.3,0.6C158.8,101,157.8,101.3,156.6,101.6
			C156.7,101.6,156.7,101.6,156.6,101.6z M115,101c-0.1,0-0.2,0-0.2-0.1c-1-0.6-1.9-1.4-2.7-2.2c-0.2-0.2-0.2-0.5,0-0.6
			c0.2-0.2,0.4-0.2,0.6,0c0.8,0.8,1.7,1.4,2.5,2.1c0.2,0.2,0.2,0.4,0.2,0.6C115.2,100.9,115,101,115,101z M163,99.6
			c-0.2,0-0.3-0.2-0.4-0.3c-0.1-0.2,0.1-0.5,0.2-0.6c1-0.4,2.1-0.8,3.1-1.2c0.2-0.1,0.5,0,0.6,0.2c0.1,0.2,0,0.5-0.2,0.6
			c-1,0.4-2.1,0.8-3.1,1.2C163,99.6,163,99.6,163,99.6z M169.2,97.1c-0.2,0-0.3-0.1-0.4-0.3s0-0.5,0.2-0.6c1-0.5,2.1-1,3-1.4
			c0.2-0.1,0.5,0,0.6,0.2c0.1,0.2,0,0.5-0.2,0.6c-1,0.5-2,1-3,1.4C169.2,97.1,169.2,97.1,169.2,97.1z M110.1,96
			c-0.2,0-0.2-0.1-0.3-0.2c-0.6-1-1.2-2.1-1.6-3.3c-0.1-0.2,0-0.5,0.2-0.6c0.2-0.1,0.5,0,0.6,0.2c0.4,1.1,0.9,2.1,1.5,3.1
			c0.2,0.2,0.1,0.5-0.1,0.6C110.3,96,110.2,96,110.1,96z M104.8,95.8c-0.2,0-0.4-0.2-0.4-0.5c0-0.2,0.2-0.5,0.4-0.5
			c1.1,0,2.2,0,3.3-0.1c0.2,0,0.4,0.2,0.4,0.4c0,0.2-0.2,0.5-0.4,0.5C106.9,95.8,105.9,95.8,104.8,95.8L104.8,95.8z M101.5,95.7
			L101.5,95.7c-1.1,0-2.2-0.1-3.3-0.2c-0.2,0-0.4-0.2-0.4-0.5s0.2-0.5,0.4-0.4c1.1,0.1,2.2,0.2,3.3,0.2c0.2,0,0.4,0.2,0.4,0.5
			C101.9,95.6,101.7,95.7,101.5,95.7z M111.3,95.5c-0.2,0-0.4-0.2-0.4-0.4c0-0.2,0.2-0.5,0.4-0.5c1.1-0.1,2.2-0.2,3.3-0.3
			c0.2,0,0.4,0.2,0.5,0.4c0,0.2-0.2,0.5-0.4,0.5C113.5,95.3,112.5,95.4,111.3,95.5L111.3,95.5z M95,95.2C95,95.2,94.9,95.2,95,95.2
			c-1.1-0.2-2.2-0.2-3.3-0.4c-0.2,0-0.4-0.2-0.3-0.5c0-0.2,0.2-0.4,0.5-0.4c1.1,0.2,2.1,0.3,3.3,0.4c0.2,0,0.4,0.2,0.4,0.5
			C95.4,95.1,95.1,95.2,95,95.2z M117.8,94.7c-0.2,0-0.4-0.2-0.4-0.4s0.1-0.5,0.3-0.6c1.1-0.2,2.1-0.4,3.2-0.7
			c0.2-0.1,0.5,0.1,0.5,0.3c0.1,0.2-0.1,0.5-0.3,0.6C120.1,94.2,119,94.4,117.8,94.7C117.9,94.7,117.9,94.7,117.8,94.7z M88.4,94.3
			C88.4,94.3,88.4,94.3,88.4,94.3c-1.2-0.2-2.2-0.4-3.3-0.6c-0.2-0.1-0.4-0.3-0.3-0.6c0.1-0.2,0.2-0.4,0.5-0.3
			c1,0.2,2.1,0.5,3.3,0.6c0.2,0.1,0.4,0.2,0.3,0.6C88.8,94.1,88.6,94.3,88.4,94.3z M175.1,94.3c-0.2,0-0.3-0.1-0.4-0.2
			c-0.1-0.2,0-0.5,0.2-0.6c1-0.6,2-1.1,2.9-1.7c0.2-0.1,0.5,0,0.6,0.2c0.1,0.2,0,0.5-0.2,0.6c-1,0.6-2,1.1-2.9,1.7
			C175.3,94.3,175.2,94.3,175.1,94.3z M124.2,93.1c-0.2,0-0.3-0.2-0.4-0.3c-0.1-0.2,0.1-0.5,0.3-0.6c1.1-0.3,2.1-0.7,3.1-1.1
			c0.2-0.1,0.5,0,0.6,0.2c0.1,0.2,0,0.5-0.2,0.6c-1,0.4-2.1,0.8-3.2,1.1C124.3,93.1,124.2,93.1,124.2,93.1z M82,92.9L82,92.9
			c-1.2-0.3-2.2-0.6-3.3-0.9c-0.2-0.1-0.3-0.3-0.3-0.6c0.1-0.2,0.3-0.4,0.5-0.3c1,0.3,2.1,0.6,3.2,0.9c0.2,0.1,0.3,0.3,0.3,0.6
			C82.3,92.8,82.2,92.9,82,92.9z M75.7,91c-0.1,0-0.1,0-0.2,0c-1-0.4-2.1-0.8-3.1-1.2c-0.2-0.1-0.3-0.3-0.2-0.6
			c0.1-0.2,0.3-0.3,0.6-0.2c1,0.4,2.1,0.8,3.1,1.2c0.2,0.1,0.3,0.3,0.2,0.6C76,90.9,75.8,91,75.7,91z M180.9,90.9
			c-0.2,0-0.3-0.1-0.3-0.2c-0.1-0.2-0.1-0.5,0.2-0.6c1-0.6,1.9-1.3,2.8-1.9c0.2-0.2,0.5-0.1,0.6,0.2c0.2,0.2,0.1,0.5-0.2,0.6
			c-1,0.6-1.9,1.3-2.9,1.9C181.1,90.9,181,90.9,180.9,90.9z M130.3,90.6c-0.2,0-0.3-0.1-0.4-0.2c-0.1-0.2,0-0.5,0.2-0.6
			c1-0.6,2-1.2,2.8-1.7c0.2-0.2,0.5-0.1,0.6,0.1c0.2,0.2,0.1,0.5-0.1,0.6c-0.9,0.6-1.8,1.3-2.9,1.8
			C130.5,90.6,130.4,90.6,130.3,90.6z M107.8,89.4c-0.2,0-0.4-0.2-0.4-0.4c-0.1-0.7-0.1-1.3-0.1-2.1c0-0.6,0-1.1,0.1-1.7
			c0-0.2,0.2-0.4,0.5-0.4c0.2,0,0.4,0.2,0.4,0.5c-0.1,0.6-0.1,1-0.1,1.6c0,0.6,0,1.3,0.1,2C108.2,89,108,89.3,107.8,89.4L107.8,89.4
			z M69.5,88.5c-0.1,0-0.1,0-0.2,0c-1-0.5-2.1-1-3-1.4c-0.2-0.1-0.3-0.4-0.2-0.6c0.1-0.2,0.3-0.3,0.6-0.2c1,0.5,2,1,3,1.4
			C70,87.7,70,88,70,88.2C69.8,88.4,69.6,88.5,69.5,88.5z M186.5,87c-0.2,0-0.2-0.1-0.3-0.2c-0.2-0.2-0.1-0.5,0.1-0.6
			c0.9-0.7,1.8-1.4,2.6-2.1c0.2-0.2,0.4-0.1,0.6,0.1c0.2,0.2,0.1,0.5-0.1,0.6c-0.9,0.7-1.7,1.4-2.7,2.1C186.6,87,186.5,87,186.5,87z
			 M135.7,86.4c-0.1,0-0.2-0.1-0.2-0.2c-0.2-0.2-0.2-0.5,0-0.6c0.8-1,1.3-1.9,1.7-2.9c0.1-0.2,0.3-0.3,0.6-0.2
			c0.2,0.1,0.3,0.4,0.2,0.6c-0.4,1.1-1,2.1-1.9,3.2C135.9,86.3,135.8,86.4,135.7,86.4z M63.6,85.4c-0.1,0-0.2,0-0.2-0.1
			c-1-0.6-2-1.2-2.9-1.8c-0.2-0.2-0.2-0.4-0.2-0.6c0.1-0.2,0.4-0.3,0.6-0.2c1,0.6,1.9,1.2,2.9,1.7c0.2,0.1,0.2,0.4,0.2,0.6
			C63.8,85.3,63.7,85.4,63.6,85.4z M191.7,82.6c-0.1,0-0.2-0.1-0.3-0.2c-0.2-0.2-0.2-0.5,0.1-0.6c0.9-0.8,1.7-1.6,2.5-2.4
			c0.2-0.2,0.4-0.2,0.6,0c0.2,0.2,0.2,0.5,0,0.6c-0.8,0.8-1.7,1.6-2.5,2.4C191.9,82.5,191.8,82.6,191.7,82.6z M108.4,82.1
			L108.4,82.1c-0.3-0.1-0.4-0.3-0.4-0.6c0.3-1.2,0.7-2.4,1.2-3.5c0.1-0.2,0.3-0.3,0.6-0.2c0.2,0.1,0.3,0.4,0.2,0.6
			c-0.5,1.1-0.8,2.2-1.1,3.3C108.7,82,108.5,82.1,108.4,82.1z M58,81.7c-0.1,0-0.2,0-0.2-0.1c-1-0.7-1.8-1.4-2.7-2.1
			c-0.2-0.2-0.2-0.4-0.1-0.6c0.2-0.2,0.4-0.2,0.6-0.1c0.9,0.7,1.7,1.4,2.6,2.1c0.2,0.2,0.2,0.4,0.1,0.6C58.2,81.6,58,81.7,58,81.7z
			 M138,79.8c-0.2,0-0.4-0.2-0.4-0.4c-0.1-1.1-0.3-2.2-0.8-3.3c-0.1-0.2,0-0.5,0.2-0.6c0.2-0.1,0.5,0,0.6,0.2
			c0.6,1.3,0.8,2.5,0.9,3.7C138.4,79.6,138.3,79.8,138,79.8L138,79.8z M196.5,77.7c-0.1,0-0.2-0.1-0.3-0.2c-0.2-0.2-0.2-0.5,0-0.6
			c0.8-0.9,1.5-1.7,2.2-2.6c0.2-0.2,0.4-0.2,0.6,0c0.2,0.2,0.2,0.5,0,0.6c-0.7,0.9-1.5,1.8-2.3,2.7
			C196.8,77.6,196.7,77.7,196.5,77.7z M52.7,77.3c-0.1,0-0.2,0-0.2-0.1c-0.9-0.8-1.7-1.7-2.4-2.5c-0.2-0.2-0.2-0.5,0-0.6
			c0.2-0.2,0.4-0.2,0.6,0c0.7,0.9,1.6,1.7,2.4,2.5c0.2,0.2,0.2,0.5,0,0.6C53,77.2,52.8,77.3,52.7,77.3z M111.1,75.6
			c-0.1,0-0.2,0-0.2-0.1c-0.2-0.2-0.2-0.4-0.1-0.6c0.6-1,1.3-2.1,2.1-2.9c0.2-0.2,0.4-0.2,0.6,0c0.2,0.2,0.2,0.5,0,0.6
			c-0.7,0.9-1.3,1.8-2,2.9C111.3,75.5,111.2,75.6,111.1,75.6z M135.4,73.3c-0.2,0-0.2-0.1-0.3-0.2c-0.6-0.9-1.3-1.7-2.1-2.5
			l-0.1-0.1c-0.2-0.2-0.2-0.5,0-0.6s0.4-0.2,0.6,0l0.1,0.1c0.8,0.9,1.6,1.8,2.1,2.7c0.2,0.2,0.1,0.5-0.1,0.6
			C135.6,73.3,135.5,73.3,135.4,73.3z M115.4,70.2c-0.2,0-0.2-0.1-0.3-0.2c-0.2-0.2-0.1-0.5,0.1-0.6c0.9-0.8,1.8-1.5,2.8-2.1
			c0.2-0.2,0.5,0,0.6,0.2c0.1,0.2,0,0.5-0.2,0.6c-1,0.6-1.8,1.2-2.7,2C115.6,70.1,115.5,70.2,115.4,70.2z M130.7,68.3
			c-0.1,0-0.2,0-0.2-0.1c-1-0.6-1.9-1.1-2.9-1.4c-0.2-0.1-0.3-0.3-0.2-0.6s0.3-0.4,0.5-0.3c1,0.3,2.1,0.9,3.1,1.5
			c0.2,0.2,0.2,0.4,0.2,0.6C130.9,68.3,130.8,68.3,130.7,68.3z M121.2,66.7c-0.2,0-0.3-0.2-0.4-0.3c-0.1-0.2,0.1-0.5,0.3-0.6
			c1.1-0.3,2.2-0.5,3.3-0.5c0.2,0,0.4,0.2,0.4,0.5s-0.2,0.5-0.4,0.5l0,0c-1,0-2.1,0.2-3.1,0.5C121.3,66.7,121.2,66.7,121.2,66.7z"/>
	</g>
</g>
<g>
	<path class="st6" d="M237.1,59c0-1.7,0.2-3.3,0.7-4.9c0.4-1.3,1.6-2.1,0.9-3.3c-1.1-1.7-1.5-3.7-1.9-5.7c-0.2-1.3-0.9-2.5-0.9-3.9
		c-0.4-0.1-0.8-0.3-1.2-0.5c-3.2-1.8-4.5-6.5-5-9.8c-0.6-4.6,0.9-10.4,6.2-10.9c5-0.5,9.1,4.5,9.4,9.4c1.1,0.2,1.7,1.2,2,2.5
		c0.3,1,0.3,2.4,0.5,3.5c0.2,1.2,0.1,2.5,0.2,3.7c0.3,3.5,2.5,5.2,4,7.5c0,1.1,0,1.8-0.3,2.9c-1.1,3.4-2.5,6.3-5,9
		c-1.5,1.6-3.3,2.9-4.9,4.4c-0.7,0.7-1.6,1.3-2.3,2c-0.6,0.5-1,1.3-1.7,1.6C237.4,64,237.1,61.4,237.1,59z"/>
	<path class="st7" d="M248,39.1c-0.9-1.1-1.8-4.3-2.6-6.4c-0.5-1.3-0.6-3.2-1-3.9c-0.9-1.8-2.9-2.5-4-1.1c-1.5,1.9,1.8,4.4,2.8,5.4
		c1.4,1.6,2.2,3.5,1.4,5.6c-0.6,1.3-1.7,2.1-2.8,2.9c-0.5,0.3-1.1,0.6-1.6,1c-0.5,0.5-0.7,1.1-1,1.7c-0.3,0.6-0.9,1.1-1.3,1.5
		c-2.1,1.7-5,2.1-6.4-0.6c-0.4-0.8-0.4-1.3-0.6-2.1c-0.2-1,0-1.8,0.2-2.8c0.1-0.8-0.5-1.2-0.5-2c0.1-1.2,1-2,2-2.1
		c1.7-0.2,3,0.3,4.3,1.3c1.6,1.2,4.8-0.3,3.3-2.6c-1.1-1.7-1.4-3.8-1.7-5.8c-0.1-1-0.2-1.9-0.2-2.9c0-0.3,0.3-2.7,0.1-2.9
		c-1-0.9-4.2,1.2-5.3,1.7c-1,0.4-2.7,1.4-3.3,1.5c-1.5,0.1-0.6-4.9-0.2-5.7c1.4-2.9,4.7-4.6,7.7-5c1.4-0.2,4.8,0.8,6.1,0.6
		c2-0.2,3.2-0.2,5.4,4.4c1.2,2.5,0.8,2.6,0.9,3.7c0.2,2.5,0.3,4.5,0.3,6C250.2,32.7,248.8,37.4,248,39.1z"/>
</g>
<g>
	<g>
		<path class="st8" d="M237.2,63.4l-1-11.3c0,0,8.9-6.3,14.8-7.3l3.1,4.7L237.2,63.4z"/>
	</g>
</g>
<g>
	<g>
		<polygon class="st9" points="208.4,218 211.5,208.6 215.9,209.8 212.3,223 		"/>
	</g>
</g>
<g>
	<g>
		<polygon class="st9" points="297.6,219.4 290.5,207.8 286.5,210.2 291.2,218.8 289.8,222.3 		"/>
	</g>
</g>
<g>
	<g>
		<polygon class="st4" points="231.6,122.5 207.7,215.2 215.7,217.3 234.9,168 248.3,142 263.3,180.6 288.4,216.8 294.3,212.6 
			273.8,165.4 267.3,122.5 		"/>
	</g>
</g>
<g>
	<g>
		<path class="st2" d="M253,46.4c0,0-7.3,2.3-11,6.5s-9.6,16.4-9.8,17.8c-0.2,1.3,1.8,16.4,1.8,16.4l-6.6,39.9c0,0,28.2,4.4,42.2,0
			l-7.4-33c0,0,0.4-4.6,1-8.4c1-5.8,1-11.7,0.2-17.5c-0.2-2-0.6-3.9-0.8-5.4c-1-5.4-5.2-11.4-6.6-12.7C254.9,48.9,253,46.4,253,46.4
			z"/>
	</g>
</g>
<g>
	<g>
		<path class="st10" d="M263.5,84"/>
		<path class="st8" d="M262.6,61.6c0.6,2,1.1,4.1,1.4,6.2c0.3,2.1,0.5,4.2,0.6,6.3c0.1,2.1,0,4.3-0.2,6.3c-0.2,2.1-0.5,4.2-1.1,6.3
			c0.1-1,0.2-2.1,0.3-3.2c0.1-1,0.2-2.1,0.2-3.2c0.1-2.1,0.1-4.2,0-6.3c-0.1-2.1-0.2-4.2-0.4-6.3c-0.1-1-0.2-2.1-0.3-3.2
			C263,63.7,262.7,62.6,262.6,61.6z"/>
	</g>
</g>
<path class="st8" d="M232.4,97.8l21-27.2l-2.5,13.9c-1,3.9-2.2,9.1-4.6,12.4c-2.5,3.4-4,4.1-6.7,6.1l-9.2,6.8l0,0L232.4,97.8z"/>
<polygon class="st8" points="229.2,117.5 237.5,106.3 237.5,106.3 227.6,127.1 "/>
<path class="st11" d="M207.8,77.4l-0.2,0.1c-0.6,0.4-1.4,0.2-1.8-0.4l-8.9-13.3c-0.4-0.6-0.2-1.4,0.4-1.8l0.2-0.1
	c0.6-0.4,1.4-0.2,1.8,0.4l8.9,13.3C208.6,76.2,208.4,77,207.8,77.4z"/>
<path class="st6" d="M206.2,82l6,5.6l5.7-6.4c-0.2,0.3-6.7-0.8-8.7-4C206.2,72.1,206.2,82,206.2,82z"/>
<path class="st6" d="M209.8,79.6c-1-1.4-9.7-12.5-11.2-9.8c-1.7,2.9,0.9,8,1.9,9.7c1.9,2.9,5.5,4,7.5,3.3
	C209.5,82.3,210.7,81,209.8,79.6z"/>
<path class="st6" d="M209.8,78.6c-0.2-0.8-1-5.6-1.9-5.5c-1.3,0.2-1,3.3-0.7,5.4c0.2,1.1,1.1,2.5,2,2.4
	C210.1,80.6,210,79.8,209.8,78.6z"/>
<path class="st12" d="M286,224.8c2.1-4,4.1-7,4-7.9c0-0.1,0-0.2,0-0.3c1.7-0.6,3.3-1.2,4.8-1.8c1.2,1.3,3.6,4,3.3,5
	c-0.3,1.1-2.9,2.5-4.8,3.1c-2.1,0.6-1.9,1.9-3.7,3.1c-1.2,0.8-7.3,3.9-7.3,2.5C282.4,227.5,286,224.8,286,224.8z"/>
<g>
	<g>
		<path class="st2" d="M245.7,59.2c-1-1.3-3.1-1.1-3.9,0.4l0,0c-0.3,0.6-0.5,1.3-0.6,2c-0.3,3.7-0.6,7.4-1.2,11
			c-0.5,3.2-1.3,6.2-2.3,9.3c-0.2,0.6-0.4,1.2-0.9,1.3c-0.4,0.2-0.8,0-1.1,0.2c-0.6,0.5,0.1,1.7-0.6,2.1c-0.6,0.3-1.2-0.5-1.8-0.3
			c-0.3,0.1-0.5,0.4-0.8,0.6c-0.5,0.4-1.3-0.3-1.7-0.6c-0.9-0.3-2.5-1-3.3-1.4c-1.7-0.8-13.9-7.1-13.9-7.1l-4.6,11.1
			c10.6,5.9,20.5,10.9,32.1,10.7c3,0,4.4-3.6,5.6-6.3c3.3-7.5,5.5-15.3,6.7-23.4L245.7,59.2z"/>
	</g>
</g>
<path class="st12" d="M200.3,219.9c4.2-1.5,7.7-2.5,8.3-3.3c0.1-0.1,0.2-0.2,0.2-0.2c1.6,0.6,3.3,1.3,4.8,1.9c0,1.8,0,5.3-0.9,6
	c-1,0.6-3.8-0.1-5.6-0.9c-2-0.9-2.7,0.2-4.8-0.2c-1.4-0.2-8-2-7.1-3C195.7,219.6,200.3,219.9,200.3,219.9z"/>
<g>
	<circle class="st8" cx="234.1" cy="71.4" r="0.6"/>
	<circle class="st8" cx="234.9" cy="68.7" r="0.5"/>
	<circle class="st8" cx="234.1" cy="74.5" r="0.5"/>
	<circle class="st8" cx="214.9" cy="81" r="1"/>
	<circle class="st8" cx="213.4" cy="84.7" r="0.6"/>
	<circle class="st8" cx="235.6" cy="66.5" r="0.3"/>
	<circle class="st8" cx="234.3" cy="77.5" r="0.3"/>
</g>
<g>
	<path class="st8" d="M45,68.2l4.5,5.4l1.3-3.4l-1.4-2.5L45,68.2z"/>
	<path class="st2" d="M38.6,52.1l-0.7,21.7l11.6-6l4.4-0.4l6.2-1.4L38.6,52.1z"/>
	<path class="st13" d="M41.9,57.2l7.7,10.6l0.1,5.8l4.4-6.2L41.9,57.2z"/>
</g>
<g>
	<path class="st0" d="M99.5,210c0,0-0.5-25.5-21.7-34C77.7,176,72.2,192.9,99.5,210z"/>
	<path class="st1" d="M99.5,210c0,0,13.7-30.6-2.2-55.4C97.3,154.7,82.5,171,99.5,210z"/>
	<path class="st14" d="M97.5,161.4c0.6,4,1.1,7.9,1.4,11.9c0.4,4,0.6,8,0.8,12c0.2,4,0.2,8,0.2,12c0,4-0.2,8-0.5,12c0-2,0-4,0-6
		c0-2,0-4-0.1-6c-0.1-4-0.2-8-0.4-12c-0.2-4-0.4-8-0.6-12c-0.2-2-0.2-4-0.4-6L97.5,161.4z"/>
	<path class="st14" d="M99,197.7c-0.8-1.4-1.6-2.9-2.4-4.4c-0.4-0.7-0.9-1.4-1.1-2.2c-0.3-0.8-0.6-1.6-0.7-2.4v-0.1l0,0
		c0.6,0.6,1,1.3,1.4,2.1c0.4,0.7,0.6,1.5,1,2.3C97.9,194.6,98.5,196.1,99,197.7C99.1,197.7,99.1,197.7,99,197.7
		C99.1,197.7,99.1,197.7,99,197.7z"/>
	<path class="st14" d="M98.6,183.6c-0.8-1.4-1.6-2.9-2.4-4.4c-0.4-0.7-0.9-1.4-1.1-2.2c-0.3-0.8-0.6-1.6-0.7-2.4v-0.1l0,0
		c0.6,0.6,1,1.3,1.4,2.1c0.4,0.7,0.6,1.5,1,2.3C97.4,180.6,98,182.1,98.6,183.6C98.7,183.6,98.6,183.6,98.6,183.6L98.6,183.6z"/>
	<path class="st14" d="M98.1,169.6c-0.7-1-1.4-2.1-2.1-3.2c-0.3-0.6-0.8-1-1-1.6c-0.2-0.6-0.6-1.2-0.6-1.8v-0.1l0,0
		c0.5,0.5,0.9,1,1.3,1.5s0.6,1.1,0.9,1.7C97.1,167.2,97.7,168.4,98.1,169.6C98.2,169.5,98.2,169.6,98.1,169.6L98.1,169.6z"/>
	<path class="st14" d="M99.7,202.9c0.4-1.3,0.8-2.7,1.2-4c0.2-0.6,0.3-1.3,0.6-2c0.3-0.6,0.6-1.3,1-1.8h0.1l0,0
		c0,0.7-0.2,1.4-0.4,2.1c-0.2,0.6-0.6,1.3-0.8,1.9C100.9,200.4,100.3,201.7,99.7,202.9C99.7,202.9,99.7,202.9,99.7,202.9
		C99.7,202.9,99.6,202.9,99.7,202.9z"/>
	<path class="st14" d="M99.7,190c0.5-1.5,1-3.1,1.4-4.6c0.2-0.8,0.4-1.5,0.8-2.3c0.3-0.7,0.7-1.4,1.2-2.1c0,0,0,0,0.1,0l0,0
		c-0.1,0.8-0.2,1.6-0.5,2.4c-0.2,0.8-0.6,1.5-0.9,2.2C101.1,187.1,100.4,188.6,99.7,190C99.7,190,99.7,190.1,99.7,190
		C99.7,190,99.6,190,99.7,190z"/>
	<path class="st14" d="M99.2,175.9c0.5-1,1-2.1,1.4-3c0.2-0.5,0.5-1,0.8-1.5c0.3-0.5,0.7-0.9,1.1-1.3h0.1l0,0
		c-0.1,0.6-0.3,1.1-0.6,1.7c-0.2,0.5-0.6,1-0.9,1.4C100.6,174.1,100,175,99.2,175.9C99.2,176,99.2,176,99.2,175.9
		C99.2,176,99.2,175.9,99.2,175.9z"/>
	<path class="st1" d="M79.5,179.1c1.7,2,3.4,4,5,6.1c1.6,2.1,3.2,4.2,4.7,6.3c1.5,2.1,2.9,4.4,4.3,6.6c1.3,2.2,2.6,4.6,3.5,7.1
		c-0.3-0.6-0.6-1.2-0.9-1.7c-0.3-0.6-0.6-1.1-1-1.7l-1-1.7l-1.1-1.7c-1.4-2.1-2.9-4.4-4.4-6.4l-4.5-6.4
		C82.5,183.4,81,181.3,79.5,179.1z"/>
</g>
</svg>
